# xmcd CD database file
#
# Track frame offsets:
#	150
#	11699
#	31222
#	49288
#	69854
#	89657
#	113763
#	135004
#	159750
#	178167
#	198471
#	214408
#
# Disc length: 3079 seconds
#
# Revision: 3
# Processed by: cddbd v1.4PL0 Copyright (c) Steve Scherf et al.
# Submitted via: CDex 1.40Release
#
DISCID=9d0c050c
DTITLE=Karen Mok - you can
DYEAR=1900
DGENRE=
TTITLE0=Extinguish
TTITLE1=Love is so great
TTITLE2=Overcast
TTITLE3=Diamond
TTITLE4=Pretty in love
TTITLE5=Any reason for love?
TTITLE6=The time you owed me
TTITLE7=I'm tired
TTITLE8=Lonely Dandelion
TTITLE9=Gossip
TTITLE10=Live Show
TTITLE11=I can't lose my faith,Love is not possession
EXTD=
EXTT0=
EXTT1=
EXTT2=
EXTT3=
EXTT4=
EXTT5=
EXTT6=
EXTT7=
EXTT8=
EXTT9=
EXTT10=
EXTT11=
PLAYORDER=
